<svg width="400" height="424" viewBox="0 0 400 424" fill="none" xmlns="http://www.w3.org/2000/svg">
<path d="M96.3888 374.46C90.9655 371.329 86.6746 364.588 84.8139 352.839C82.9659 341.17 83.7513 325.754 87.3405 307.449C94.5039 270.915 112.497 224.56 139.811 177.25C167.126 129.94 198.274 91.18 226.332 66.7094C240.39 54.4486 253.348 46.0604 264.377 41.8264C275.482 37.5633 283.466 37.909 288.889 41.0401C294.312 44.1712 298.603 50.9121 300.464 62.661C302.312 74.3299 301.526 89.7458 297.937 108.051C290.774 144.585 272.781 190.94 245.466 238.25C218.152 285.56 187.003 324.32 158.946 348.791C144.888 361.051 131.93 369.44 120.901 373.674C109.795 377.937 101.812 377.591 96.3888 374.46Z" stroke="white" stroke-width="15"/>
<path d="M392.5 220.5C392.5 226.762 388.808 233.849 379.563 241.335C370.382 248.769 356.638 255.797 338.991 261.841C303.77 273.905 254.629 281.5 200 281.5C145.371 281.5 96.2297 273.905 61.0088 261.841C43.3616 255.797 29.6183 248.769 20.4368 241.335C11.1922 233.849 7.5 226.762 7.5 220.5C7.5 214.238 11.1922 207.151 20.4368 199.665C29.6183 192.231 43.3616 185.203 61.0088 179.159C96.2297 167.095 145.371 159.5 200 159.5C254.629 159.5 303.77 167.095 338.991 179.159C356.638 185.203 370.382 192.231 379.563 199.665C388.808 207.151 392.5 214.238 392.5 220.5Z" stroke="white" stroke-width="15"/>
<path d="M288.889 382.96C283.465 386.091 275.482 386.437 264.377 382.174C253.348 377.94 240.39 369.551 226.332 357.291C198.274 332.82 167.126 294.06 139.811 246.75C112.497 199.44 94.5039 153.085 87.3404 116.551C83.7513 98.2458 82.9659 82.8299 84.8139 71.161C86.6746 59.4121 90.9655 52.6712 96.3888 49.5401C101.812 46.409 109.795 46.0633 120.901 50.3264C131.93 54.5604 144.888 62.9486 158.946 75.2094C187.003 99.68 218.152 138.44 245.466 185.75C272.781 233.06 290.774 279.415 297.937 315.949C301.526 334.254 302.312 349.67 300.464 361.339C298.603 373.088 294.312 379.829 288.889 382.96Z" stroke="white" stroke-width="15"/>
<mask id="path-4-inside-1_1_343" fill="white">
<path d="M150.139 192.165L167.177 175.817L231.079 242.117L214.041 258.465L150.139 192.165Z"/>
</mask>
<path d="M150.139 192.165L167.177 175.817L231.079 242.117L214.041 258.465L150.139 192.165Z" fill="white"/>
<path d="M150.139 192.165L148.751 190.725L145.864 193.495L147.252 194.935L150.139 192.165ZM167.177 175.817L170.785 172.355L169.397 170.915L165.789 174.377L167.177 175.817ZM231.079 242.117L232.467 243.557L236.075 240.095L234.687 238.655L231.079 242.117ZM214.041 258.465L211.155 261.234L212.543 262.674L215.429 259.905L214.041 258.465ZM151.527 193.605L168.565 177.257L165.789 174.377L148.751 190.725L151.527 193.605ZM163.569 179.279L227.472 245.578L234.687 238.655L170.785 172.355L163.569 179.279ZM229.691 240.677L212.653 257.025L215.429 259.905L232.467 243.557L229.691 240.677ZM216.927 255.695L153.025 189.396L147.252 194.935L211.155 261.234L216.927 255.695Z" fill="black" mask="url(#path-4-inside-1_1_343)"/>
<line x1="2" y1="-2" x2="93.6238" y2="-2" transform="matrix(-0.69397 -0.720004 0.721574 -0.692337 217.383 258.53)" stroke="white" stroke-width="4" stroke-linecap="round"/>
<line x1="2" y1="-2" x2="93.6238" y2="-2" transform="matrix(-0.69397 -0.720004 0.721574 -0.692337 233.57 242.999)" stroke="white" stroke-width="4" stroke-linecap="round"/>
<line x1="0.5" y1="-0.5" x2="46.7217" y2="-0.5" transform="matrix(-0.69397 -0.720004 0.721574 -0.692337 219.152 253.56)" stroke="black" stroke-linecap="round"/>
<line x1="0.5" y1="-0.5" x2="38.4579" y2="-0.5" transform="matrix(-0.69397 -0.720004 0.721574 -0.692337 222.56 250.291)" stroke="black" stroke-linecap="round"/>
<line x1="0.5" y1="-0.5" x2="11.3054" y2="-0.5" transform="matrix(-0.69397 -0.720004 0.721574 -0.692337 164.295 194.943)" stroke="black" stroke-linecap="round"/>
<line x1="0.5" y1="-0.5" x2="23.1108" y2="-0.5" transform="matrix(-0.69397 -0.720004 0.721574 -0.692337 190.74 210.471)" stroke="black" stroke-linecap="round"/>
<line x1="150.316" y1="191.27" x2="166.316" y2="176.27" stroke="white" stroke-width="2"/>
<mask id="path-13-inside-2_1_343" fill="white">
<path d="M202.771 261.737L184.69 273.916L130.794 208.577L148.875 196.398L202.771 261.737Z"/>
</mask>
<path d="M202.771 261.737L184.69 273.916L130.794 208.577L148.875 196.398L202.771 261.737Z" fill="white"/>
<path d="M202.771 261.737L204.044 263.28L207.361 261.045L206.089 259.503L202.771 261.737ZM184.69 273.916L180.543 276.709L181.816 278.252L185.963 275.459L184.69 273.916ZM130.794 208.577L129.521 207.034L125.374 209.828L126.647 211.371L130.794 208.577ZM148.875 196.398L152.192 194.164L150.92 192.621L147.602 194.856L148.875 196.398ZM201.499 260.194L183.418 272.373L185.963 275.459L204.044 263.28L201.499 260.194ZM188.837 271.123L134.941 205.784L126.647 211.371L180.543 276.709L188.837 271.123ZM132.067 210.12L150.147 197.941L147.602 194.856L129.521 207.034L132.067 210.12ZM145.557 198.633L199.454 263.972L206.089 259.503L152.192 194.164L145.557 198.633Z" fill="black" mask="url(#path-13-inside-2_1_343)"/>
<line x1="2" y1="-2" x2="85.957" y2="-2" transform="matrix(0.636325 0.771421 -0.829397 0.55866 145.685 195.941)" stroke="white" stroke-width="4" stroke-linecap="round"/>
<line x1="2" y1="-2" x2="85.957" y2="-2" transform="matrix(0.636325 0.771421 -0.829397 0.55866 128.508 207.511)" stroke="white" stroke-width="4" stroke-linecap="round"/>
<line x1="0.5" y1="-0.5" x2="42.9356" y2="-0.5" transform="matrix(0.636325 0.771421 -0.829397 0.55866 143.451 200.052)" stroke="black" stroke-linecap="round"/>
<line x1="0.5" y1="-0.5" x2="35.3343" y2="-0.5" transform="matrix(0.636325 0.771421 -0.829397 0.55866 139.834 202.488)" stroke="black" stroke-linecap="round"/>
<line x1="0.5" y1="-0.5" x2="10.3589" y2="-0.5" transform="matrix(0.636325 0.771421 -0.829397 0.55866 189.533 257.623)" stroke="black" stroke-linecap="round"/>
<line x1="0.5" y1="-0.5" x2="21.2178" y2="-0.5" transform="matrix(0.636325 0.771421 -0.829397 0.55866 165.93 240.944)" stroke="black" stroke-linecap="round"/>
<line y1="-1" x2="20.2701" y2="-1" transform="matrix(-0.835746 0.549116 -0.625587 -0.780154 201.929 261.778)" stroke="white" stroke-width="2"/>
<mask id="path-22-inside-3_1_343" fill="white">
<path d="M244.18 221.956L230.98 235.413L178.384 184.056L191.585 170.598L244.18 221.956Z"/>
</mask>
<path d="M244.18 221.956L230.98 235.413L178.384 184.056L191.585 170.598L244.18 221.956Z" fill="white"/>
<path d="M244.18 221.956L245.611 223.353L248.412 220.498L246.981 219.1L244.18 221.956ZM230.98 235.413L227.478 238.983L228.909 240.38L232.411 236.81L230.98 235.413ZM178.384 184.056L176.953 182.658L173.452 186.228L174.883 187.625L178.384 184.056ZM191.585 170.598L194.386 167.743L192.955 166.346L190.154 169.201L191.585 170.598ZM242.749 220.559L229.549 234.016L232.411 236.81L245.611 223.353L242.749 220.559ZM234.481 231.844L181.886 180.486L174.883 187.625L227.478 238.983L234.481 231.844ZM179.815 185.453L193.016 171.996L190.154 169.201L176.953 182.658L179.815 185.453ZM188.784 173.454L241.379 224.811L246.981 219.1L194.386 167.743L188.784 173.454Z" fill="black" mask="url(#path-22-inside-3_1_343)"/>
<line x1="2" y1="-2" x2="74.3382" y2="-2" transform="matrix(0.715475 0.698638 -0.700257 0.713891 188.916 170.627)" stroke="white" stroke-width="4" stroke-linecap="round"/>
<line x1="2" y1="-2" x2="74.3382" y2="-2" transform="matrix(0.715475 0.698638 -0.700257 0.713891 176.376 183.412)" stroke="white" stroke-width="4" stroke-linecap="round"/>
<line x1="0.5" y1="-0.5" x2="37.1979" y2="-0.5" transform="matrix(0.715475 0.698638 -0.700257 0.713891 187.625 174.636)" stroke="black" stroke-linecap="round"/>
<line x1="0.5" y1="-0.5" x2="30.6007" y2="-0.5" transform="matrix(0.715475 0.698638 -0.700257 0.713891 184.985 177.327)" stroke="black" stroke-linecap="round"/>
<line x1="0.5" y1="-0.5" x2="8.92447" y2="-0.5" transform="matrix(0.715475 0.698638 -0.700257 0.713891 232.817 220.082)" stroke="black" stroke-linecap="round"/>
<line x1="0.5" y1="-0.5" x2="18.3489" y2="-0.5" transform="matrix(0.715475 0.698638 -0.700257 0.713891 211.339 208.331)" stroke="black" stroke-linecap="round"/>
<line x1="244.202" y1="222.817" x2="231.798" y2="235.173" stroke="white" stroke-width="2"/>
<mask id="path-31-inside-4_1_343" fill="white">
<path d="M129.864 154.69L108.084 155.633L96.246 71.7654L118.026 70.8224L129.864 154.69Z"/>
</mask>
<path d="M129.864 154.69L108.084 155.633L96.246 71.7654L118.026 70.8224L129.864 154.69Z" fill="white"/>
<path d="M129.864 154.69L130.143 156.671L134.14 156.498L133.86 154.517L129.864 154.69ZM108.084 155.633L103.089 155.85L103.368 157.83L108.364 157.614L108.084 155.633ZM96.246 71.7654L95.9665 69.785L90.9712 70.0013L91.2507 71.9817L96.246 71.7654ZM118.026 70.8224L122.022 70.6494L121.742 68.669L117.746 68.842L118.026 70.8224ZM129.584 152.71L107.805 153.653L108.364 157.614L130.143 156.671L129.584 152.71ZM113.079 155.417L101.241 71.5491L91.2507 71.9817L103.089 155.85L113.079 155.417ZM96.5255 73.7457L118.305 72.8028L117.746 68.842L95.9665 69.785L96.5255 73.7457ZM114.029 70.9954L125.868 154.863L133.86 154.517L122.022 70.6494L114.029 70.9954Z" fill="black" mask="url(#path-31-inside-4_1_343)"/>
<line x1="2" y1="-2" x2="85.957" y2="-2" transform="matrix(0.139766 0.990185 -0.999064 0.0432557 115.544 68.7662)" stroke="white" stroke-width="4" stroke-linecap="round"/>
<line x1="2" y1="-2" x2="85.957" y2="-2" transform="matrix(0.139766 0.990185 -0.999064 0.0432557 94.8535 69.6621)" stroke="white" stroke-width="4" stroke-linecap="round"/>
<line x1="0.5" y1="-0.5" x2="42.9356" y2="-0.5" transform="matrix(0.139766 0.990185 -0.999064 0.0432557 111.492 71.1053)" stroke="black" stroke-linecap="round"/>
<line x1="0.5" y1="-0.5" x2="35.3343" y2="-0.5" transform="matrix(0.139766 0.990185 -0.999064 0.0432557 107.136 71.2939)" stroke="black" stroke-linecap="round"/>
<line x1="0.5" y1="-0.5" x2="10.3589" y2="-0.5" transform="matrix(0.139766 0.990185 -0.999064 0.0432557 120.723 144.268)" stroke="black" stroke-linecap="round"/>
<line x1="0.5" y1="-0.5" x2="21.2178" y2="-0.5" transform="matrix(0.139766 0.990185 -0.999064 0.0432557 109.306 117.717)" stroke="black" stroke-linecap="round"/>
<line y1="-1" x2="20.2701" y2="-1" transform="matrix(-0.999494 0.0318017 -0.126049 -0.992024 129.125 154.285)" stroke="white" stroke-width="2"/>
<mask id="path-40-inside-5_1_343" fill="white">
<path d="M153.465 136.839L136.597 140.832L120.876 75.0917L137.743 71.0984L153.465 136.839Z"/>
</mask>
<path d="M153.465 136.839L136.597 140.832L120.876 75.0917L137.743 71.0984L153.465 136.839Z" fill="white"/>
<path d="M153.465 136.839L153.93 138.784L157.822 137.863L157.357 135.918L153.465 136.839ZM136.597 140.832L131.732 141.984L132.197 143.93L137.063 142.778L136.597 140.832ZM120.876 75.0917L120.41 73.1466L115.545 74.2985L116.01 76.2437L120.876 75.0917ZM137.743 71.0984L141.635 70.1768L141.17 68.2317L137.278 69.1532L137.743 71.0984ZM152.999 134.894L136.132 138.887L137.063 142.778L153.93 138.784L152.999 134.894ZM141.463 139.681L125.741 73.9398L116.01 76.2437L131.732 141.984L141.463 139.681ZM121.341 77.0369L138.208 73.0435L137.278 69.1532L120.41 73.1466L121.341 77.0369ZM133.85 72.0199L149.572 137.761L157.357 135.918L141.635 70.1768L133.85 72.0199Z" fill="black" mask="url(#path-40-inside-5_1_343)"/>
<line x1="2" y1="-2" x2="68.1943" y2="-2" transform="matrix(0.232589 0.972575 -0.973099 0.230386 135.653 69.812)" stroke="white" stroke-width="4" stroke-linecap="round"/>
<line x1="2" y1="-2" x2="68.1943" y2="-2" transform="matrix(0.232589 0.972575 -0.973099 0.230386 119.629 73.6058)" stroke="white" stroke-width="4" stroke-linecap="round"/>
<line x1="0.5" y1="-0.5" x2="34.1639" y2="-0.5" transform="matrix(0.232589 0.972575 -0.973099 0.230386 132.683 72.2964)" stroke="black" stroke-linecap="round"/>
<line x1="0.5" y1="-0.5" x2="28.0977" y2="-0.5" transform="matrix(0.232589 0.972575 -0.973099 0.230386 129.309 73.095)" stroke="black" stroke-linecap="round"/>
<line x1="0.5" y1="-0.5" x2="8.16597" y2="-0.5" transform="matrix(0.232589 0.972575 -0.973099 0.230386 145.545 129.809)" stroke="black" stroke-linecap="round"/>
<line x1="0.5" y1="-0.5" x2="16.8319" y2="-0.5" transform="matrix(0.232589 0.972575 -0.973099 0.230386 134.603 110.135)" stroke="black" stroke-linecap="round"/>
<line x1="153.077" y1="137.598" x2="137.369" y2="141.126" stroke="white" stroke-width="2"/>
<mask id="path-49-inside-6_1_343" fill="white">
<path d="M293.977 355.901L280.237 372.826L209.621 326.056L223.362 309.131L293.977 355.901Z"/>
</mask>
<path d="M293.977 355.901L280.237 372.826L209.621 326.056L223.362 309.131L293.977 355.901Z" fill="white"/>
<path d="M293.977 355.901L295.645 357.006L298.166 353.9L296.498 352.796L293.977 355.901ZM280.237 372.826L277.085 376.708L278.753 377.812L281.904 373.93L280.237 372.826ZM209.621 326.056L207.954 324.952L204.802 328.833L206.47 329.938L209.621 326.056ZM223.362 309.131L225.883 306.026L224.215 304.922L221.694 308.027L223.362 309.131ZM292.31 354.797L278.569 371.721L281.904 373.93L295.645 357.006L292.31 354.797ZM283.388 368.944L212.773 322.174L206.47 329.938L277.085 376.708L283.388 368.944ZM211.288 327.16L225.029 310.236L221.694 308.027L207.954 324.952L211.288 327.16ZM220.84 312.237L291.456 359.007L296.498 352.796L225.883 306.026L220.84 312.237Z" fill="black" mask="url(#path-49-inside-6_1_343)"/>
<line x1="2" y1="-2" x2="85.957" y2="-2" transform="matrix(0.833721 0.552186 -0.630301 0.776351 220.177 309.625)" stroke="white" stroke-width="4" stroke-linecap="round"/>
<line x1="2" y1="-2" x2="85.957" y2="-2" transform="matrix(0.833721 0.552186 -0.630301 0.776351 207.123 325.703)" stroke="white" stroke-width="4" stroke-linecap="round"/>
<line x1="0.5" y1="-0.5" x2="42.9356" y2="-0.5" transform="matrix(0.833721 0.552186 -0.630301 0.776351 219.239 314.209)" stroke="black" stroke-linecap="round"/>
<line x1="0.5" y1="-0.5" x2="35.3343" y2="-0.5" transform="matrix(0.833721 0.552186 -0.630301 0.776351 216.491 317.594)" stroke="black" stroke-linecap="round"/>
<line x1="0.5" y1="-0.5" x2="10.3589" y2="-0.5" transform="matrix(0.833721 0.552186 -0.630301 0.776351 280.115 355.829)" stroke="black" stroke-linecap="round"/>
<line x1="0.5" y1="-0.5" x2="21.2178" y2="-0.5" transform="matrix(0.833721 0.552186 -0.630301 0.776351 252.672 346.762)" stroke="black" stroke-linecap="round"/>
<line y1="-1" x2="20.2701" y2="-1" transform="matrix(-0.639158 0.769075 -0.825998 -0.563672 293.184 356.186)" stroke="white" stroke-width="2"/>
<mask id="path-58-inside-7_1_343" fill="white">
<path d="M292.457 246.975L285.479 231.525L345.667 204.178L352.645 219.629L292.457 246.975Z"/>
</mask>
<path d="M292.457 246.975L285.479 231.525L345.667 204.178L352.645 219.629L292.457 246.975Z" fill="white"/>
<path d="M292.457 246.975L290.636 247.802L292.282 251.448L294.103 250.62L292.457 246.975ZM285.479 231.525L283.421 226.968L281.6 227.795L283.658 232.352L285.479 231.525ZM345.667 204.178L347.488 203.351L345.43 198.794L343.609 199.622L345.667 204.178ZM352.645 219.629L354.291 223.274L356.112 222.447L354.466 218.801L352.645 219.629ZM294.277 246.148L287.3 230.698L283.658 232.352L290.636 247.802L294.277 246.148ZM287.537 236.082L347.725 208.735L343.609 199.622L283.421 226.968L287.537 236.082ZM343.846 205.006L350.824 220.456L354.466 218.801L347.488 203.351L343.846 205.006ZM350.998 215.983L290.81 243.33L294.103 250.62L354.291 223.274L350.998 215.983Z" fill="black" mask="url(#path-58-inside-7_1_343)"/>
<line x1="2" y1="-2" x2="66.6521" y2="-2" transform="matrix(-0.910434 0.413654 -0.411591 -0.911369 353.49 217.382)" stroke="white" stroke-width="4" stroke-linecap="round"/>
<line x1="2" y1="-2" x2="66.6521" y2="-2" transform="matrix(-0.910434 0.413654 -0.411591 -0.911369 346.862 202.705)" stroke="white" stroke-width="4" stroke-linecap="round"/>
<line x1="0.5" y1="-0.5" x2="33.4023" y2="-0.5" transform="matrix(-0.910434 0.413654 -0.411591 -0.911369 350.552 214.994)" stroke="black" stroke-linecap="round"/>
<line x1="0.5" y1="-0.5" x2="27.4694" y2="-0.5" transform="matrix(-0.910434 0.413654 -0.411591 -0.911369 349.156 211.904)" stroke="black" stroke-linecap="round"/>
<line x1="0.5" y1="-0.5" x2="7.97557" y2="-0.5" transform="matrix(-0.910434 0.413654 -0.411591 -0.911369 297.731 238.061)" stroke="black" stroke-linecap="round"/>
<line x1="0.5" y1="-0.5" x2="16.4511" y2="-0.5" transform="matrix(-0.910434 0.413654 -0.411591 -0.911369 314.58 223.889)" stroke="black" stroke-linecap="round"/>
<line x1="291.635" y1="246.753" x2="285.321" y2="232.329" stroke="white" stroke-width="2"/>
<mask id="path-67-inside-8_1_343" fill="white">
<path d="M352.157 228.04L356.063 243.196L298.924 264.001L295.018 248.845L352.157 228.04Z"/>
</mask>
<path d="M352.157 228.04L356.063 243.196L298.924 264.001L295.018 248.845L352.157 228.04Z" fill="white"/>
<path d="M352.157 228.04L354.036 227.355L353.038 223.482L351.159 224.166L352.157 228.04ZM356.063 243.196L357.311 248.037L359.19 247.353L357.943 242.511L356.063 243.196ZM298.924 264.001L297.045 264.685L298.293 269.527L300.172 268.843L298.924 264.001ZM295.018 248.845L294.02 244.972L292.141 245.656L293.139 249.53L295.018 248.845ZM350.278 228.724L354.184 243.88L357.943 242.511L354.036 227.355L350.278 228.724ZM354.815 238.354L297.676 259.159L300.172 268.843L357.311 248.037L354.815 238.354ZM300.804 263.317L296.897 248.161L293.139 249.53L297.045 264.685L300.804 263.317ZM296.016 252.719L353.155 231.913L351.159 224.166L294.02 244.972L296.016 252.719Z" fill="black" mask="url(#path-67-inside-8_1_343)"/>
<line x1="2" y1="-2" x2="61.1478" y2="-2" transform="matrix(0.939646 -0.342147 0.249579 0.968355 293.944 250.894)" stroke="white" stroke-width="4" stroke-linecap="round"/>
<line x1="2" y1="-2" x2="61.1478" y2="-2" transform="matrix(0.939646 -0.342147 0.249579 0.968355 297.655 265.292)" stroke="white" stroke-width="4" stroke-linecap="round"/>
<line x1="0.5" y1="-0.5" x2="30.6841" y2="-0.5" transform="matrix(0.939646 -0.342147 0.249579 0.968355 296.19 253.392)" stroke="black" stroke-linecap="round"/>
<line x1="0.5" y1="-0.5" x2="25.2269" y2="-0.5" transform="matrix(0.939646 -0.342147 0.249579 0.968355 296.971 256.423)" stroke="black" stroke-linecap="round"/>
<line x1="0.5" y1="-0.5" x2="7.29602" y2="-0.5" transform="matrix(0.939646 -0.342147 0.249579 0.968355 346.199 236.012)" stroke="black" stroke-linecap="round"/>
<line x1="0.5" y1="-0.5" x2="15.092" y2="-0.5" transform="matrix(0.939646 -0.342147 0.249579 0.968355 329.252 247.985)" stroke="black" stroke-linecap="round"/>
<line y1="-1" x2="14.5527" y2="-1" transform="matrix(0.238463 0.971152 -0.944292 0.32911 351.983 228.619)" stroke="white" stroke-width="2"/>
<mask id="path-76-inside-9_1_343" fill="white">
<path d="M335.165 190.479L341.107 202.639L293.741 225.916L287.8 213.757L335.165 190.479Z"/>
</mask>
<path d="M335.165 190.479L341.107 202.639L293.741 225.916L287.8 213.757L335.165 190.479Z" fill="white"/>
<path d="M335.165 190.479L336.96 189.597L335.204 186.003L333.409 186.885L335.165 190.479ZM341.107 202.639L343.302 207.131L345.097 206.249L342.902 201.757L341.107 202.639ZM293.741 225.916L291.946 226.798L294.142 231.291L295.936 230.409L293.741 225.916ZM287.8 213.757L286.044 210.163L284.249 211.045L286.005 214.639L287.8 213.757ZM333.37 191.361L339.312 203.521L342.902 201.757L336.96 189.597L333.37 191.361ZM338.912 198.146L291.546 221.424L295.936 230.409L343.302 207.131L338.912 198.146ZM295.536 225.034L289.595 212.874L286.005 214.639L291.946 226.798L295.536 225.034ZM289.556 217.351L336.921 194.073L333.409 186.885L286.044 210.163L289.556 217.351Z" fill="black" mask="url(#path-76-inside-9_1_343)"/>
<line x1="2" y1="-2" x2="52.8062" y2="-2" transform="matrix(0.897477 -0.44106 0.439027 0.898474 287.179 215.569)" stroke="white" stroke-width="4" stroke-linecap="round"/>
<line x1="2" y1="-2" x2="52.8062" y2="-2" transform="matrix(0.897477 -0.44106 0.439027 0.898474 292.824 227.121)" stroke="white" stroke-width="4" stroke-linecap="round"/>
<line x1="0.5" y1="-0.5" x2="26.5648" y2="-0.5" transform="matrix(0.897477 -0.44106 0.439027 0.898474 289.582 217.404)" stroke="black" stroke-linecap="round"/>
<line x1="0.5" y1="-0.5" x2="21.8284" y2="-0.5" transform="matrix(0.897477 -0.44106 0.439027 0.898474 290.771 219.836)" stroke="black" stroke-linecap="round"/>
<line x1="0.5" y1="-0.5" x2="6.26619" y2="-0.5" transform="matrix(0.897477 -0.44106 0.439027 0.898474 331.172 197.719)" stroke="black" stroke-linecap="round"/>
<line x1="0.5" y1="-0.5" x2="13.0324" y2="-0.5" transform="matrix(0.897477 -0.44106 0.439027 0.898474 318.071 209.436)" stroke="black" stroke-linecap="round"/>
<line x1="336.008" y1="190.549" x2="341.396" y2="201.906" stroke="white" stroke-width="2"/>
</svg>
